<svg width="64" height="64" viewBox="0 0 64 64" fill="none" xmlns="http://www.w3.org/2000/svg">
<circle cx="32" cy="32" r="30" fill="#F3F4F6"/>
<path d="M32 12C26.477 12 22 16.477 22 22C22 27.523 26.477 32 32 32C37.523 32 42 27.523 42 22C42 16.477 37.523 12 32 12Z" fill="#FF6B35"/>
<path d="M20 36C20 34.895 20.895 34 22 34H42C43.105 34 44 34.895 44 36V50C44 51.105 43.105 52 42 52H22C20.895 52 20 51.105 20 50V36Z" fill="#FF6B35"/>
<path d="M28 40H36V46H28V40Z" fill="white"/>
<path d="M24 20H40V24H24V20Z" fill="white"/>
</svg>
