<svg width="26" height="16" viewBox="0 0 26 16" fill="none" xmlns="http://www.w3.org/2000/svg">
<g clip-path="url(#clip0_977_9236)">
<path d="M22.9281 0H2.40891C2.32343 0 2.23781 0 2.15248 0.00045298C2.08045 0.00105695 2.00857 0.00181192 1.93653 0.00377483C1.77963 0.00800264 1.62136 0.0173642 1.46642 0.045147C1.31103 0.0717655 1.16048 0.121383 1.01972 0.192365C0.736742 0.336274 0.506733 0.56625 0.362803 0.849186C0.291684 0.989982 0.242054 1.14063 0.215564 1.29613C0.187475 1.4512 0.178263 1.60929 0.174035 1.76602C0.172194 1.83798 0.171087 1.90995 0.170712 1.98194C0.17041 2.0671 0.17041 2.15256 0.17041 2.23817V13.7617C0.17041 13.8473 0.17041 13.9326 0.170712 14.0182C0.171165 14.0901 0.172071 14.1621 0.174035 14.2341C0.178263 14.3906 0.187626 14.5488 0.215564 14.7037C0.241999 14.8592 0.291579 15.0099 0.362652 15.1507C0.43411 15.2913 0.527384 15.4197 0.63901 15.5312C0.750445 15.6428 0.878895 15.7361 1.01957 15.8075C1.16258 15.8804 1.30906 15.9268 1.46657 15.955C1.62136 15.9826 1.77963 15.992 1.93653 15.9962C2.00857 15.9979 2.08045 15.9988 2.15248 15.9992C2.23781 15.9998 2.32343 15.9998 2.40891 15.9998H22.9281C23.0134 15.9998 23.099 15.9998 23.1844 15.9992C23.2562 15.9989 23.3281 15.9979 23.4005 15.9962C23.5571 15.992 23.7153 15.9826 23.8706 15.955C24.026 15.9284 24.1765 15.8786 24.3173 15.8075C24.6001 15.6634 24.8301 15.4335 24.9742 15.1507C25.0471 15.0077 25.0933 14.8612 25.1213 14.7037C25.1494 14.5488 25.1584 14.3906 25.1626 14.2341C25.1646 14.1621 25.1657 14.0901 25.166 14.0182C25.1666 13.9326 25.1666 13.8473 25.1666 13.7617V2.23832C25.1666 2.15271 25.1666 2.06725 25.166 1.98179C25.1657 1.90985 25.1646 1.83793 25.1626 1.76602C25.1584 1.60929 25.1494 1.4512 25.1213 1.29613C25.095 1.14061 25.0454 0.989935 24.9742 0.849186C24.8302 0.566299 24.6002 0.336342 24.3173 0.192365C24.1765 0.121456 24.0259 0.0718906 23.8706 0.045298C23.7153 0.0173642 23.5571 0.00815364 23.4005 0.00392583C23.3284 0.00209689 23.2564 0.000989547 23.1844 0.000603973C23.099 0 23.0134 0 22.9281 0Z" fill="#E4E4E4"/>
<path d="M22.9255 0.53418L23.1779 0.534633C23.2462 0.535086 23.3146 0.535841 23.3833 0.537653C23.5031 0.540974 23.6429 0.547467 23.7734 0.570871C23.8867 0.591255 23.9818 0.622209 24.073 0.668715C24.2556 0.761509 24.4038 0.909941 24.4965 1.09255C24.5427 1.18315 24.5735 1.27767 24.5939 1.39197C24.6171 1.52092 24.6236 1.66119 24.6268 1.78153C24.6288 1.84948 24.6297 1.91743 24.6298 1.98689C24.6306 2.07099 24.6306 2.15494 24.6306 2.2392V13.7627C24.6306 13.847 24.6306 13.9309 24.63 14.0167C24.6297 14.0846 24.6287 14.1526 24.6269 14.2205C24.6236 14.3407 24.6171 14.481 24.5936 14.6114C24.5764 14.7152 24.5436 14.8158 24.4962 14.9096C24.4033 15.0923 24.2548 15.2407 24.0721 15.3335C23.9815 15.3797 23.8867 15.4106 23.7745 15.4309C23.6414 15.4546 23.4955 15.4611 23.3857 15.4641C23.3167 15.4656 23.248 15.4667 23.1775 15.467C23.0937 15.4676 23.0094 15.4676 22.9255 15.4676H2.40296C2.3199 15.4676 2.23684 15.4676 2.15228 15.467C2.08431 15.4667 2.01635 15.4658 1.94841 15.4642C1.83605 15.4612 1.69017 15.4546 1.55818 15.431C1.45383 15.4136 1.35271 15.3805 1.25827 15.3329C1.16768 15.2869 1.08499 15.2267 1.01332 15.1547C0.941423 15.0829 0.881377 15.0002 0.835424 14.9096C0.787967 14.8152 0.755076 14.7142 0.737869 14.6099C0.71431 14.4796 0.707666 14.3399 0.704645 14.2207C0.702939 14.1525 0.701932 14.0843 0.701625 14.0161L0.701172 13.8157V2.18635L0.701474 1.98628C0.701786 1.91797 0.702792 1.84967 0.704494 1.78138C0.707817 1.6618 0.71431 1.52213 0.73802 1.39076C0.755261 1.28671 0.788152 1.18586 0.835575 1.09165C0.881631 1.00105 0.941779 0.918329 1.01377 0.846585C1.08562 0.774638 1.16839 0.714505 1.25902 0.668413C1.35323 0.621088 1.45403 0.588206 1.55803 0.570871C1.68866 0.547467 1.82865 0.540974 1.94856 0.537653C2.0167 0.53597 2.08486 0.534963 2.15303 0.534633L2.40628 0.53418H22.9255Z" fill="white"/>
<path d="M6.73706 5.40147C6.94905 5.13648 7.0928 4.78058 7.0549 4.41699C6.74476 4.43239 6.36637 4.62159 6.14713 4.88688C5.95038 5.11398 5.77629 5.48467 5.82158 5.83301C6.16977 5.86321 6.51766 5.65906 6.73706 5.40147ZM7.05097 5.9011C6.54514 5.87091 6.11542 6.18799 5.87398 6.18799C5.63239 6.18799 5.26261 5.9162 4.86263 5.9236C4.34215 5.93115 3.85927 6.22559 3.59504 6.69367C3.05176 7.62983 3.45159 9.01896 3.98007 9.78148C4.23661 10.159 4.54584 10.5742 4.95322 10.5592C5.33825 10.5441 5.4891 10.3101 5.95687 10.3101C6.4245 10.3101 6.56039 10.5592 6.96792 10.5517C7.3904 10.5441 7.65464 10.1742 7.91118 9.79673C8.20562 9.3664 8.32596 8.95117 8.33351 8.92852C8.32596 8.92097 7.51875 8.61128 7.5112 7.68267C7.50365 6.90506 8.14507 6.53513 8.17527 6.51233C7.81303 5.9766 7.24711 5.9162 7.05082 5.9011" fill="#24292A"/>
<path d="M12.0987 4.84766C13.1978 4.84766 13.9633 5.60519 13.9633 6.70804C13.9633 7.81482 13.1821 8.57628 12.0712 8.57628H10.8543V10.5114H9.9751V4.84766H12.0987ZM10.8543 7.83838H11.8631C12.6287 7.83838 13.0643 7.42632 13.0643 6.71197C13.0643 5.99777 12.6286 5.58949 11.867 5.58949H10.8543V7.83838ZM14.1813 9.33774C14.1813 8.61162 14.7348 8.19563 15.7553 8.13282L16.8505 8.06608V7.75201C16.8505 7.29299 16.5483 7.04174 16.0106 7.04174C15.5669 7.04174 15.2449 7.26929 15.1785 7.61853H14.3853C14.409 6.88471 15.0998 6.35095 16.0341 6.35095C17.039 6.35095 17.6945 6.87685 17.6945 7.69327V10.5113H16.8821V9.83225H16.8624C16.6308 10.2757 16.1204 10.5543 15.5669 10.5543C14.7505 10.5543 14.1813 10.0678 14.1813 9.33774ZM16.8505 8.97279V8.6548L15.8731 8.71761C15.3234 8.75295 15.0371 8.95694 15.0371 9.31404C15.0371 9.65951 15.3354 9.88328 15.8025 9.88328C16.399 9.88328 16.8505 9.50248 16.8505 8.97279ZM18.4416 12.0262V11.3473C18.4966 11.355 18.6299 11.3629 18.7006 11.3629C19.0892 11.3629 19.309 11.1983 19.4425 10.7741L19.5211 10.523L18.0333 6.40198H18.9517L19.9882 9.74588H20.0078L21.044 6.40198H21.9391L20.3963 10.731C20.043 11.724 19.6387 12.0499 18.783 12.0499C18.7163 12.0499 18.5003 12.042 18.4416 12.0262Z" fill="#24292A"/>
</g>
<defs>
<clipPath id="clip0_977_9236">
<rect width="25.337" height="16" fill="white"/>
</clipPath>
</defs>
</svg>
