<svg width="24" height="15" viewBox="0 0 24 15" fill="none" xmlns="http://www.w3.org/2000/svg">
<path d="M22.2243 0L22.4768 0.000452983C22.545 0.000905963 22.6134 0.00166093 22.6822 0.00347284C22.8019 0.0067947 22.9418 0.0132874 23.0722 0.0366914C23.1855 0.0570755 23.2806 0.088029 23.3718 0.134535C23.5544 0.227329 23.7027 0.375761 23.7953 0.558373C23.8415 0.648969 23.8723 0.743491 23.8927 0.857793C23.916 0.986741 23.9224 1.12701 23.9256 1.24736C23.9276 1.3153 23.9285 1.38325 23.9286 1.45271C23.9294 1.53681 23.9294 1.62076 23.9294 1.70502V13.2285C23.9294 13.3128 23.9294 13.3967 23.9288 13.4825C23.9285 13.5504 23.9276 13.6184 23.9258 13.6863C23.9224 13.8065 23.916 13.9468 23.8924 14.0773C23.8753 14.181 23.8424 14.2816 23.795 14.3755C23.7022 14.5581 23.5537 14.7066 23.3709 14.7993C23.2803 14.8455 23.1855 14.8765 23.0733 14.8967C22.9402 14.9204 22.7944 14.9269 22.6846 14.9299C22.6156 14.9314 22.5468 14.9325 22.4763 14.9328C22.3925 14.9334 22.3082 14.9334 22.2243 14.9334H1.70179C1.61873 14.9334 1.53567 14.9334 1.4511 14.9328C1.38314 14.9325 1.31518 14.9316 1.24723 14.9301C1.13488 14.927 0.988997 14.9204 0.85701 14.8968C0.752656 14.8795 0.651537 14.8464 0.557095 14.7987C0.466503 14.7527 0.383819 14.6925 0.312148 14.6205C0.240251 14.5488 0.180205 14.466 0.134252 14.3755C0.0867954 14.281 0.0539044 14.18 0.0366967 14.0757C0.0131383 13.9454 0.00649365 13.8058 0.00347335 13.6865C0.00176727 13.6183 0.000760456 13.5501 0.000453048 13.4819L0 13.2815V1.65217L0.000302008 1.4521C0.000613787 1.38379 0.0016206 1.31549 0.00332231 1.2472C0.00664464 1.12762 0.0131383 0.987949 0.0368477 0.856585C0.0540895 0.752529 0.0869804 0.651682 0.134403 0.557467C0.180459 0.466866 0.240607 0.38415 0.312601 0.312405C0.384445 0.240458 0.467217 0.180325 0.55785 0.134233C0.652062 0.0869082 0.752861 0.0540263 0.856859 0.0366914C0.987487 0.0132874 1.12748 0.0067947 1.24738 0.00347284C1.31553 0.00179027 1.38369 0.000783597 1.45186 0.000452983L1.70511 0H22.2243Z" fill="white"/>
</svg>
